<svg xmlns="http://www.w3.org/2000/svg" viewBox="0 0 64 64" role="img" aria-label="Quiz icon">
  <defs>
    <linearGradient id="bg" x1="0" y1="0" x2="1" y2="1">
      <stop offset="0%" stop-color="#6d28d9"/>
      <stop offset="100%" stop-color="#1d4ed8"/>
    </linearGradient>
  </defs>
  <rect x="4" y="4" width="56" height="56" rx="14" fill="url(#bg)"/>
  <circle cx="32" cy="24" r="12" fill="#ffffff" opacity="0.2"/>
  <path d="M32 14c-6.4 0-11 3.6-11 8.7h6c0-2 1.9-3.6 4.9-3.6 2.8 0 4.6 1.3 4.6 3.3 0 1.8-1.2 2.8-3.3 4.1-3 1.9-4.6 3.8-4.4 7.4h5.8c0-1.7.8-2.6 2.8-3.8 2.8-1.7 5.2-3.7 5.2-7.8 0-4.8-4.2-8.3-10.6-8.3z" fill="#ffffff"/>
  <circle cx="32" cy="45" r="3.2" fill="#ffffff"/>
</svg>
